<?xml version="1.0" standalone="no"?>
<!DOCTYPE svg PUBLIC "-//W3C//DTD SVG 20010904//EN"
 "http://www.w3.org/TR/2001/REC-SVG-20010904/DTD/svg10.dtd">
<svg version="1.0" xmlns="http://www.w3.org/2000/svg"
 width="512.000000pt" height="512.000000pt" viewBox="0 0 512.000000 512.000000"
 preserveAspectRatio="xMidYMid meet">
<metadata>
Created by potrace 1.14, written by Peter Selinger 2001-2017
</metadata>
<g transform="translate(0.000000,512.000000) scale(0.100000,-0.100000)"
fill="#000000" stroke="none">
<path d="M2133 4609 c-283 -33 -611 -140 -855 -280 -105 -60 -126 -85 -108
-129 13 -31 40 -44 175 -86 72 -23 120 -67 136 -126 9 -35 8 -53 -7 -108 -10
-36 -18 -94 -17 -129 1 -60 7 -77 97 -259 54 -107 93 -198 89 -202 -4 -4 -28
-12 -51 -19 -96 -27 -171 -147 -159 -252 12 -95 42 -132 232 -284 l110 -87 27
-79 c14 -43 47 -122 72 -175 25 -53 46 -98 46 -100 0 -1 -143 -4 -317 -6
l-318 -3 -56 -26 c-72 -34 -134 -96 -168 -168 -24 -53 -26 -67 -29 -228 l-4
-171 -86 -49 c-165 -93 -316 -264 -382 -435 -52 -134 -60 -196 -60 -452 0
-213 2 -234 18 -249 17 -16 174 -17 2049 -17 1954 0 2031 1 2046 18 15 16 17
48 17 246 0 250 -10 324 -61 456 -64 168 -217 341 -381 433 l-86 49 -4 171
c-3 161 -5 175 -29 228 -34 72 -96 134 -168 168 l-56 26 -317 3 c-175 2 -318
5 -318 6 0 2 21 47 46 100 25 53 58 132 72 175 l27 79 110 87 c144 115 183
152 206 198 70 134 -2 299 -149 344 l-60 18 79 215 c95 256 114 339 106 465
-17 297 -239 562 -527 629 -53 13 -141 15 -490 15 -234 -1 -458 -5 -497 -10z
m960 -138 c123 -32 215 -89 292 -181 90 -108 128 -213 128 -355 0 -100 -18
-178 -69 -302 l-16 -38 -19 72 c-10 40 -34 104 -53 142 -38 76 -212 341 -224
341 -4 0 -16 3 -28 6 -16 4 -46 -15 -123 -76 -188 -149 -247 -175 -443 -191
-122 -10 -221 -35 -298 -75 -25 -12 -153 -95 -285 -184 l-240 -160 -62 126
c-69 140 -74 167 -47 262 42 144 -22 289 -159 359 l-52 26 90 43 c121 57 365
137 500 163 172 33 254 38 656 40 342 1 383 -1 452 -18z m173 -796 c24 -70 28
-100 32 -232 l4 -153 -311 0 -312 0 -24 -25 c-18 -18 -25 -35 -25 -65 l0 -40
-65 0 -65 0 0 40 c0 30 -7 47 -25 65 l-24 25 -311 0 -310 0 0 49 0 48 230 153
c127 84 257 163 289 176 62 25 164 43 245 44 123 0 258 55 396 158 l94 71 78
-117 c50 -76 86 -145 104 -197z m-1559 -656 c7 -74 11 -138 10 -143 -4 -12
-123 85 -138 112 -19 34 -16 88 7 119 20 26 77 55 99 49 5 -1 15 -63 22 -137z
m255 14 c4 -153 23 -199 99 -246 45 -27 52 -28 167 -28 137 0 172 10 221 67
34 38 51 89 51 152 l0 42 65 0 65 0 0 -42 c0 -63 17 -114 51 -152 49 -57 84
-67 221 -67 115 0 122 1 167 28 76 47 95 93 99 246 l4 127 59 0 c32 0 61 -4
64 -10 9 -14 -13 -210 -35 -321 -29 -143 -75 -276 -144 -412 l-61 -122 -490 0
-490 0 -61 122 c-69 136 -115 269 -144 412 -22 111 -44 307 -35 321 3 6 32 10
64 10 l59 0 4 -127z m398 8 c0 -149 -2 -151 -132 -151 -124 0 -128 5 -128 155
l0 115 130 0 130 0 0 -119z m670 4 c0 -150 -4 -155 -128 -155 -130 0 -132 2
-132 151 l0 119 130 0 130 0 0 -115z m490 86 c45 -32 56 -103 25 -151 -13 -21
-126 -112 -132 -106 -4 4 16 252 23 274 5 16 49 7 84 -17z m353 -1010 c28 -19
55 -46 69 -73 l23 -43 3 -692 3 -693 -1406 0 -1406 0 3 693 3 692 23 43 c14
27 41 54 69 73 l47 29 1261 0 1261 0 47 -29z m-2843 -1041 l0 -460 -200 0
-200 0 0 158 c0 230 26 352 102 480 45 76 158 194 232 242 33 22 62 40 63 40
2 0 3 -207 3 -460z m3244 325 c177 -175 226 -312 226 -627 l0 -158 -200 0
-200 0 0 460 0 461 42 -23 c23 -13 83 -63 132 -113z"/>
<path d="M1967 1921 c-110 -111 -137 -144 -137 -167 0 -22 28 -55 142 -171
l142 -143 48 47 48 47 -105 106 c-58 58 -105 110 -105 115 0 6 47 57 105 115
l105 104 -42 43 c-23 24 -47 43 -53 43 -6 0 -73 -63 -148 -139z"/>
<path d="M2515 1801 c-107 -144 -195 -264 -195 -269 0 -8 58 -58 87 -75 14 -9
407 508 400 526 -3 7 -25 27 -50 45 l-46 33 -196 -260z"/>
<path d="M2962 2017 l-42 -43 105 -104 c58 -58 105 -109 105 -115 0 -5 -47
-57 -105 -115 l-105 -106 48 -47 48 -47 142 143 c114 116 142 149 142 171 0
23 -27 56 -137 167 -75 76 -142 139 -148 139 -6 0 -30 -19 -53 -43z"/>
<path d="M2463 1335 c-52 -22 -119 -91 -143 -147 -73 -169 60 -368 245 -368
185 0 318 199 245 368 -25 57 -92 125 -145 148 -43 18 -160 18 -202 -1z m162
-131 c74 -35 94 -138 39 -203 -98 -117 -283 6 -216 144 33 68 107 93 177 59z"/>
</g>
</svg>
